<mxfile host="app.diagrams.net" modified="2022-11-30T17:06:00.361Z" agent="5.0 (X11; Linux x86_64) AppleWebKit/537.36 (KHTML, like Gecko) Chrome/107.0.0.0 Safari/537.36" etag="RGcMLgiv1bQomcUCkb9F" version="20.6.0" type="github" pages="4">
  <diagram id="xr2BRUaOLUlIsGmzK3fB" name="Page-1">
    <mxGraphModel dx="1108" dy="435" grid="1" gridSize="10" guides="1" tooltips="1" connect="1" arrows="1" fold="1" page="1" pageScale="1" pageWidth="827" pageHeight="1169" math="0" shadow="0">
      <root>
        <mxCell id="0" />
        <mxCell id="1" parent="0" />
        <mxCell id="7wTg4qNdRYEKQ6oYhS1T-2" value="&lt;b&gt;Project Pname, Cname&lt;/b&gt;" style="text;html=1;strokeColor=none;fillColor=none;align=center;verticalAlign=middle;whiteSpace=wrap;rounded=0;" parent="1" vertex="1">
          <mxGeometry x="115" y="50" width="160" height="30" as="geometry" />
        </mxCell>
        <mxCell id="7wTg4qNdRYEKQ6oYhS1T-3" value="Select Pno=Pno AND Select Cno=Cno AND Select Ono=Ono AND Select Price &amp;gt; 150.00" style="rounded=1;whiteSpace=wrap;html=1;" parent="1" vertex="1">
          <mxGeometry x="5" y="110" width="380" height="60" as="geometry" />
        </mxCell>
        <mxCell id="7wTg4qNdRYEKQ6oYhS1T-4" value="Parts" style="ellipse;whiteSpace=wrap;html=1;" parent="1" vertex="1">
          <mxGeometry x="260" y="275" width="80" height="40" as="geometry" />
        </mxCell>
        <mxCell id="7wTg4qNdRYEKQ6oYhS1T-5" value="Customers" style="ellipse;whiteSpace=wrap;html=1;" parent="1" vertex="1">
          <mxGeometry x="220" y="350" width="80" height="40" as="geometry" />
        </mxCell>
        <mxCell id="7wTg4qNdRYEKQ6oYhS1T-6" value="Orders" style="ellipse;whiteSpace=wrap;html=1;" parent="1" vertex="1">
          <mxGeometry x="150" y="420" width="90" height="40" as="geometry" />
        </mxCell>
        <mxCell id="7wTg4qNdRYEKQ6oYhS1T-7" value="Odetails" style="ellipse;whiteSpace=wrap;html=1;" parent="1" vertex="1">
          <mxGeometry x="40" y="420" width="80" height="40" as="geometry" />
        </mxCell>
        <mxCell id="7wTg4qNdRYEKQ6oYhS1T-10" value="X" style="text;html=1;strokeColor=none;fillColor=none;align=center;verticalAlign=middle;whiteSpace=wrap;rounded=0;" parent="1" vertex="1">
          <mxGeometry x="140" y="280" width="60" height="30" as="geometry" />
        </mxCell>
        <mxCell id="7wTg4qNdRYEKQ6oYhS1T-11" value="X" style="text;html=1;strokeColor=none;fillColor=none;align=center;verticalAlign=middle;whiteSpace=wrap;rounded=0;" parent="1" vertex="1">
          <mxGeometry x="170" y="200" width="60" height="30" as="geometry" />
        </mxCell>
        <mxCell id="7wTg4qNdRYEKQ6oYhS1T-12" value="X" style="text;html=1;strokeColor=none;fillColor=none;align=center;verticalAlign=middle;whiteSpace=wrap;rounded=0;" parent="1" vertex="1">
          <mxGeometry x="100" y="360" width="60" height="30" as="geometry" />
        </mxCell>
        <mxCell id="7wTg4qNdRYEKQ6oYhS1T-14" value="" style="endArrow=none;html=1;rounded=0;exitX=0.578;exitY=0.02;exitDx=0;exitDy=0;exitPerimeter=0;entryX=0.5;entryY=1;entryDx=0;entryDy=0;" parent="1" source="7wTg4qNdRYEKQ6oYhS1T-7" target="7wTg4qNdRYEKQ6oYhS1T-12" edge="1">
          <mxGeometry width="50" height="50" relative="1" as="geometry">
            <mxPoint x="70" y="420" as="sourcePoint" />
            <mxPoint x="120" y="380" as="targetPoint" />
          </mxGeometry>
        </mxCell>
        <mxCell id="7wTg4qNdRYEKQ6oYhS1T-17" value="" style="endArrow=none;html=1;rounded=0;exitX=0.5;exitY=0;exitDx=0;exitDy=0;entryX=0.5;entryY=1;entryDx=0;entryDy=0;" parent="1" source="7wTg4qNdRYEKQ6oYhS1T-6" target="7wTg4qNdRYEKQ6oYhS1T-12" edge="1">
          <mxGeometry width="50" height="50" relative="1" as="geometry">
            <mxPoint x="190" y="420" as="sourcePoint" />
            <mxPoint x="140" y="380" as="targetPoint" />
          </mxGeometry>
        </mxCell>
        <mxCell id="7wTg4qNdRYEKQ6oYhS1T-20" value="" style="endArrow=none;html=1;rounded=0;exitX=0.275;exitY=-0.025;exitDx=0;exitDy=0;entryX=0.5;entryY=1;entryDx=0;entryDy=0;exitPerimeter=0;" parent="1" source="7wTg4qNdRYEKQ6oYhS1T-5" target="7wTg4qNdRYEKQ6oYhS1T-10" edge="1">
          <mxGeometry width="50" height="50" relative="1" as="geometry">
            <mxPoint x="280" y="330" as="sourcePoint" />
            <mxPoint x="250" y="290" as="targetPoint" />
          </mxGeometry>
        </mxCell>
        <mxCell id="7wTg4qNdRYEKQ6oYhS1T-21" value="" style="endArrow=none;html=1;rounded=0;entryX=0.383;entryY=0.967;entryDx=0;entryDy=0;entryPerimeter=0;exitX=0.5;exitY=0;exitDx=0;exitDy=0;" parent="1" source="7wTg4qNdRYEKQ6oYhS1T-12" target="7wTg4qNdRYEKQ6oYhS1T-10" edge="1">
          <mxGeometry width="50" height="50" relative="1" as="geometry">
            <mxPoint x="130" y="370" as="sourcePoint" />
            <mxPoint x="180" y="310" as="targetPoint" />
          </mxGeometry>
        </mxCell>
        <mxCell id="7wTg4qNdRYEKQ6oYhS1T-22" value="" style="endArrow=none;html=1;rounded=0;entryX=0.5;entryY=1;entryDx=0;entryDy=0;" parent="1" target="7wTg4qNdRYEKQ6oYhS1T-11" edge="1">
          <mxGeometry width="50" height="50" relative="1" as="geometry">
            <mxPoint x="175" y="285" as="sourcePoint" />
            <mxPoint x="225" y="235" as="targetPoint" />
          </mxGeometry>
        </mxCell>
        <mxCell id="7wTg4qNdRYEKQ6oYhS1T-23" value="" style="endArrow=none;html=1;rounded=0;entryX=0.5;entryY=1;entryDx=0;entryDy=0;exitX=0.5;exitY=0;exitDx=0;exitDy=0;" parent="1" source="7wTg4qNdRYEKQ6oYhS1T-4" target="7wTg4qNdRYEKQ6oYhS1T-11" edge="1">
          <mxGeometry width="50" height="50" relative="1" as="geometry">
            <mxPoint x="305" y="240" as="sourcePoint" />
            <mxPoint x="355" y="190" as="targetPoint" />
          </mxGeometry>
        </mxCell>
        <mxCell id="7wTg4qNdRYEKQ6oYhS1T-37" value="Orders" style="ellipse;whiteSpace=wrap;html=1;" parent="1" vertex="1">
          <mxGeometry x="270" y="850" width="80" height="40" as="geometry" />
        </mxCell>
        <mxCell id="7wTg4qNdRYEKQ6oYhS1T-38" value="Odetails" style="ellipse;whiteSpace=wrap;html=1;" parent="1" vertex="1">
          <mxGeometry x="385" y="850" width="85" height="40" as="geometry" />
        </mxCell>
        <mxCell id="7wTg4qNdRYEKQ6oYhS1T-40" value="" style="endArrow=none;html=1;rounded=0;entryX=0.5;entryY=1;entryDx=0;entryDy=0;exitX=0.5;exitY=0;exitDx=0;exitDy=0;" parent="1" source="7wTg4qNdRYEKQ6oYhS1T-38" target="7wTg4qNdRYEKQ6oYhS1T-43" edge="1">
          <mxGeometry width="50" height="50" relative="1" as="geometry">
            <mxPoint x="360" y="880" as="sourcePoint" />
            <mxPoint x="320" y="840" as="targetPoint" />
          </mxGeometry>
        </mxCell>
        <mxCell id="7wTg4qNdRYEKQ6oYhS1T-42" value="" style="endArrow=none;html=1;rounded=0;entryX=0.5;entryY=1;entryDx=0;entryDy=0;exitX=0.5;exitY=0;exitDx=0;exitDy=0;" parent="1" source="7wTg4qNdRYEKQ6oYhS1T-37" target="7wTg4qNdRYEKQ6oYhS1T-43" edge="1">
          <mxGeometry width="50" height="50" relative="1" as="geometry">
            <mxPoint x="240" y="880" as="sourcePoint" />
            <mxPoint x="281" y="840" as="targetPoint" />
          </mxGeometry>
        </mxCell>
        <mxCell id="7wTg4qNdRYEKQ6oYhS1T-43" value="X" style="text;html=1;strokeColor=none;fillColor=none;align=center;verticalAlign=middle;whiteSpace=wrap;rounded=0;" parent="1" vertex="1">
          <mxGeometry x="325" y="800" width="60" height="30" as="geometry" />
        </mxCell>
        <mxCell id="7wTg4qNdRYEKQ6oYhS1T-44" value="Select Ono=Ono" style="rounded=1;whiteSpace=wrap;html=1;" parent="1" vertex="1">
          <mxGeometry x="240" y="745" width="250" height="30" as="geometry" />
        </mxCell>
        <mxCell id="7wTg4qNdRYEKQ6oYhS1T-45" value="" style="endArrow=none;html=1;rounded=0;entryX=0.468;entryY=1.05;entryDx=0;entryDy=0;entryPerimeter=0;exitX=0.5;exitY=0;exitDx=0;exitDy=0;" parent="1" source="7wTg4qNdRYEKQ6oYhS1T-43" target="7wTg4qNdRYEKQ6oYhS1T-44" edge="1">
          <mxGeometry width="50" height="50" relative="1" as="geometry">
            <mxPoint x="300" y="820" as="sourcePoint" />
            <mxPoint x="350" y="770" as="targetPoint" />
          </mxGeometry>
        </mxCell>
        <mxCell id="7wTg4qNdRYEKQ6oYhS1T-46" value="Customers" style="ellipse;whiteSpace=wrap;html=1;" parent="1" vertex="1">
          <mxGeometry x="530" y="745" width="85" height="40" as="geometry" />
        </mxCell>
        <mxCell id="7wTg4qNdRYEKQ6oYhS1T-47" value="X" style="text;html=1;strokeColor=none;fillColor=none;align=center;verticalAlign=middle;whiteSpace=wrap;rounded=0;" parent="1" vertex="1">
          <mxGeometry x="445" y="670" width="60" height="30" as="geometry" />
        </mxCell>
        <mxCell id="7wTg4qNdRYEKQ6oYhS1T-48" value="" style="endArrow=none;html=1;rounded=0;entryX=0.5;entryY=1;entryDx=0;entryDy=0;exitX=0.482;exitY=0.04;exitDx=0;exitDy=0;exitPerimeter=0;" parent="1" source="7wTg4qNdRYEKQ6oYhS1T-44" target="7wTg4qNdRYEKQ6oYhS1T-47" edge="1">
          <mxGeometry width="50" height="50" relative="1" as="geometry">
            <mxPoint x="320" y="760" as="sourcePoint" />
            <mxPoint x="370" y="710" as="targetPoint" />
          </mxGeometry>
        </mxCell>
        <mxCell id="7wTg4qNdRYEKQ6oYhS1T-49" value="" style="endArrow=none;html=1;rounded=0;exitX=0.5;exitY=0;exitDx=0;exitDy=0;entryX=0.5;entryY=1;entryDx=0;entryDy=0;" parent="1" source="7wTg4qNdRYEKQ6oYhS1T-46" target="7wTg4qNdRYEKQ6oYhS1T-47" edge="1">
          <mxGeometry width="50" height="50" relative="1" as="geometry">
            <mxPoint x="560" y="760" as="sourcePoint" />
            <mxPoint x="475" y="710" as="targetPoint" />
          </mxGeometry>
        </mxCell>
        <mxCell id="7wTg4qNdRYEKQ6oYhS1T-50" value="Select Cno=Cno" style="rounded=1;whiteSpace=wrap;html=1;" parent="1" vertex="1">
          <mxGeometry x="350" y="620" width="250" height="30" as="geometry" />
        </mxCell>
        <mxCell id="7wTg4qNdRYEKQ6oYhS1T-51" value="" style="endArrow=none;html=1;rounded=0;entryX=0.5;entryY=1;entryDx=0;entryDy=0;exitX=0.5;exitY=0;exitDx=0;exitDy=0;" parent="1" source="7wTg4qNdRYEKQ6oYhS1T-47" target="7wTg4qNdRYEKQ6oYhS1T-50" edge="1">
          <mxGeometry width="50" height="50" relative="1" as="geometry">
            <mxPoint x="460" y="700" as="sourcePoint" />
            <mxPoint x="510" y="650" as="targetPoint" />
          </mxGeometry>
        </mxCell>
        <mxCell id="7wTg4qNdRYEKQ6oYhS1T-52" value="Parts" style="ellipse;whiteSpace=wrap;html=1;" parent="1" vertex="1">
          <mxGeometry x="672.5" y="630" width="85" height="40" as="geometry" />
        </mxCell>
        <mxCell id="7wTg4qNdRYEKQ6oYhS1T-53" value="Select Price &amp;gt; 150.00" style="text;html=1;strokeColor=none;fillColor=none;align=center;verticalAlign=middle;whiteSpace=wrap;rounded=0;" parent="1" vertex="1">
          <mxGeometry x="650" y="590" width="130" height="30" as="geometry" />
        </mxCell>
        <mxCell id="7wTg4qNdRYEKQ6oYhS1T-54" value="X" style="text;html=1;strokeColor=none;fillColor=none;align=center;verticalAlign=middle;whiteSpace=wrap;rounded=0;" parent="1" vertex="1">
          <mxGeometry x="570" y="560" width="60" height="30" as="geometry" />
        </mxCell>
        <mxCell id="7wTg4qNdRYEKQ6oYhS1T-55" value="" style="endArrow=none;html=1;rounded=0;exitX=0.5;exitY=0;exitDx=0;exitDy=0;" parent="1" source="7wTg4qNdRYEKQ6oYhS1T-50" edge="1">
          <mxGeometry width="50" height="50" relative="1" as="geometry">
            <mxPoint x="470" y="640" as="sourcePoint" />
            <mxPoint x="600" y="590" as="targetPoint" />
          </mxGeometry>
        </mxCell>
        <mxCell id="7wTg4qNdRYEKQ6oYhS1T-56" value="" style="endArrow=none;html=1;rounded=0;entryX=0.5;entryY=1;entryDx=0;entryDy=0;exitX=0.5;exitY=0;exitDx=0;exitDy=0;" parent="1" source="7wTg4qNdRYEKQ6oYhS1T-52" target="7wTg4qNdRYEKQ6oYhS1T-54" edge="1">
          <mxGeometry width="50" height="50" relative="1" as="geometry">
            <mxPoint x="687.5" y="640" as="sourcePoint" />
            <mxPoint x="737.5" y="590" as="targetPoint" />
          </mxGeometry>
        </mxCell>
        <mxCell id="7wTg4qNdRYEKQ6oYhS1T-57" value="Select Pno=Pno" style="rounded=1;whiteSpace=wrap;html=1;" parent="1" vertex="1">
          <mxGeometry x="472" y="510" width="250" height="30" as="geometry" />
        </mxCell>
        <mxCell id="7wTg4qNdRYEKQ6oYhS1T-58" value="Project Cname, Pname" style="text;html=1;strokeColor=none;fillColor=none;align=center;verticalAlign=middle;whiteSpace=wrap;rounded=0;fontStyle=1" parent="1" vertex="1">
          <mxGeometry x="500" y="460" width="200" height="30" as="geometry" />
        </mxCell>
        <mxCell id="7wTg4qNdRYEKQ6oYhS1T-61" value="" style="endArrow=none;html=1;rounded=0;" parent="1" edge="1">
          <mxGeometry width="50" height="50" relative="1" as="geometry">
            <mxPoint x="600" y="560" as="sourcePoint" />
            <mxPoint x="599.71" y="540" as="targetPoint" />
          </mxGeometry>
        </mxCell>
        <mxCell id="7wTg4qNdRYEKQ6oYhS1T-62" value="" style="endArrow=none;html=1;rounded=0;entryX=0.47;entryY=1.1;entryDx=0;entryDy=0;entryPerimeter=0;exitX=0.5;exitY=0;exitDx=0;exitDy=0;" parent="1" source="7wTg4qNdRYEKQ6oYhS1T-57" target="7wTg4qNdRYEKQ6oYhS1T-58" edge="1">
          <mxGeometry width="50" height="50" relative="1" as="geometry">
            <mxPoint x="599.71" y="510" as="sourcePoint" />
            <mxPoint x="600" y="470" as="targetPoint" />
          </mxGeometry>
        </mxCell>
        <mxCell id="mC8OSMII6OA3LWJImm3K-1" value="" style="endArrow=none;html=1;rounded=0;entryX=0.5;entryY=0;entryDx=0;entryDy=0;exitX=0.518;exitY=1.047;exitDx=0;exitDy=0;exitPerimeter=0;" parent="1" source="7wTg4qNdRYEKQ6oYhS1T-3" target="7wTg4qNdRYEKQ6oYhS1T-11" edge="1">
          <mxGeometry width="50" height="50" relative="1" as="geometry">
            <mxPoint x="140" y="220" as="sourcePoint" />
            <mxPoint x="170" y="190" as="targetPoint" />
          </mxGeometry>
        </mxCell>
        <mxCell id="mC8OSMII6OA3LWJImm3K-2" value="" style="endArrow=none;html=1;rounded=0;exitX=0.5;exitY=0;exitDx=0;exitDy=0;entryX=0.5;entryY=1;entryDx=0;entryDy=0;" parent="1" source="7wTg4qNdRYEKQ6oYhS1T-3" target="7wTg4qNdRYEKQ6oYhS1T-2" edge="1">
          <mxGeometry width="50" height="50" relative="1" as="geometry">
            <mxPoint x="390" y="180" as="sourcePoint" />
            <mxPoint x="440" y="130" as="targetPoint" />
          </mxGeometry>
        </mxCell>
      </root>
    </mxGraphModel>
  </diagram>
  <diagram id="ODzc6XCSosyGmbOSwwqi" name="Page-2">
    <mxGraphModel dx="1108" dy="435" grid="1" gridSize="10" guides="1" tooltips="1" connect="1" arrows="1" fold="1" page="1" pageScale="1" pageWidth="827" pageHeight="1169" math="0" shadow="0">
      <root>
        <mxCell id="0" />
        <mxCell id="1" parent="0" />
        <mxCell id="F7AytVYL2NM1qPVSzKxk-1" value="Orders" style="ellipse;whiteSpace=wrap;html=1;" parent="1" vertex="1">
          <mxGeometry x="170" y="320" width="110" height="40" as="geometry" />
        </mxCell>
        <mxCell id="F7AytVYL2NM1qPVSzKxk-2" value="Odetails" style="ellipse;whiteSpace=wrap;html=1;" parent="1" vertex="1">
          <mxGeometry x="390" y="320" width="110" height="40" as="geometry" />
        </mxCell>
        <mxCell id="F7AytVYL2NM1qPVSzKxk-4" value="Ono=Ono" style="rounded=1;whiteSpace=wrap;html=1;" parent="1" vertex="1">
          <mxGeometry x="230" y="250" width="210" height="30" as="geometry" />
        </mxCell>
        <mxCell id="F7AytVYL2NM1qPVSzKxk-6" value="Customers" style="ellipse;whiteSpace=wrap;html=1;" parent="1" vertex="1">
          <mxGeometry x="510" y="240" width="110" height="40" as="geometry" />
        </mxCell>
        <mxCell id="F7AytVYL2NM1qPVSzKxk-7" value="Cno=Cno" style="rounded=1;whiteSpace=wrap;html=1;" parent="1" vertex="1">
          <mxGeometry x="350" y="160" width="210" height="30" as="geometry" />
        </mxCell>
        <mxCell id="F7AytVYL2NM1qPVSzKxk-10" value="Parts" style="ellipse;whiteSpace=wrap;html=1;" parent="1" vertex="1">
          <mxGeometry x="630" y="160" width="110" height="40" as="geometry" />
        </mxCell>
        <mxCell id="F7AytVYL2NM1qPVSzKxk-11" value="Pno=Pno" style="rounded=1;whiteSpace=wrap;html=1;" parent="1" vertex="1">
          <mxGeometry x="482.5" y="70" width="210" height="30" as="geometry" />
        </mxCell>
        <mxCell id="F7AytVYL2NM1qPVSzKxk-12" value="Project Pname, Cname" style="text;html=1;strokeColor=none;fillColor=none;align=center;verticalAlign=middle;whiteSpace=wrap;rounded=0;" parent="1" vertex="1">
          <mxGeometry x="500" y="10" width="175" height="30" as="geometry" />
        </mxCell>
        <mxCell id="F7AytVYL2NM1qPVSzKxk-14" value="" style="endArrow=none;html=1;rounded=0;entryX=0.424;entryY=1.044;entryDx=0;entryDy=0;entryPerimeter=0;" parent="1" target="F7AytVYL2NM1qPVSzKxk-4" edge="1">
          <mxGeometry width="50" height="50" relative="1" as="geometry">
            <mxPoint x="240" y="320" as="sourcePoint" />
            <mxPoint x="290" y="270" as="targetPoint" />
          </mxGeometry>
        </mxCell>
        <mxCell id="F7AytVYL2NM1qPVSzKxk-15" value="" style="endArrow=none;html=1;rounded=0;exitX=0.455;exitY=0;exitDx=0;exitDy=0;exitPerimeter=0;entryX=0.563;entryY=1.044;entryDx=0;entryDy=0;entryPerimeter=0;" parent="1" source="F7AytVYL2NM1qPVSzKxk-2" target="F7AytVYL2NM1qPVSzKxk-4" edge="1">
          <mxGeometry width="50" height="50" relative="1" as="geometry">
            <mxPoint x="420" y="310" as="sourcePoint" />
            <mxPoint x="470" y="260" as="targetPoint" />
          </mxGeometry>
        </mxCell>
        <mxCell id="F7AytVYL2NM1qPVSzKxk-17" value="" style="endArrow=none;html=1;rounded=0;entryX=0.376;entryY=1.111;entryDx=0;entryDy=0;entryPerimeter=0;" parent="1" target="F7AytVYL2NM1qPVSzKxk-7" edge="1">
          <mxGeometry width="50" height="50" relative="1" as="geometry">
            <mxPoint x="340" y="250" as="sourcePoint" />
            <mxPoint x="390" y="200" as="targetPoint" />
          </mxGeometry>
        </mxCell>
        <mxCell id="F7AytVYL2NM1qPVSzKxk-18" value="" style="endArrow=none;html=1;rounded=0;entryX=0.579;entryY=1.067;entryDx=0;entryDy=0;entryPerimeter=0;" parent="1" target="F7AytVYL2NM1qPVSzKxk-7" edge="1">
          <mxGeometry width="50" height="50" relative="1" as="geometry">
            <mxPoint x="550" y="240" as="sourcePoint" />
            <mxPoint x="600" y="190" as="targetPoint" />
          </mxGeometry>
        </mxCell>
        <mxCell id="F7AytVYL2NM1qPVSzKxk-19" value="" style="endArrow=none;html=1;rounded=0;entryX=0.437;entryY=1.067;entryDx=0;entryDy=0;entryPerimeter=0;" parent="1" target="F7AytVYL2NM1qPVSzKxk-11" edge="1">
          <mxGeometry width="50" height="50" relative="1" as="geometry">
            <mxPoint x="450" y="160" as="sourcePoint" />
            <mxPoint x="500" y="110" as="targetPoint" />
          </mxGeometry>
        </mxCell>
        <mxCell id="F7AytVYL2NM1qPVSzKxk-20" value="" style="endArrow=none;html=1;rounded=0;entryX=0.523;entryY=1.089;entryDx=0;entryDy=0;entryPerimeter=0;" parent="1" target="F7AytVYL2NM1qPVSzKxk-11" edge="1">
          <mxGeometry width="50" height="50" relative="1" as="geometry">
            <mxPoint x="670" y="160" as="sourcePoint" />
            <mxPoint x="720" y="110" as="targetPoint" />
          </mxGeometry>
        </mxCell>
        <mxCell id="F7AytVYL2NM1qPVSzKxk-21" value="" style="endArrow=none;html=1;rounded=0;entryX=0.455;entryY=1.133;entryDx=0;entryDy=0;entryPerimeter=0;" parent="1" target="F7AytVYL2NM1qPVSzKxk-12" edge="1">
          <mxGeometry width="50" height="50" relative="1" as="geometry">
            <mxPoint x="580" y="70" as="sourcePoint" />
            <mxPoint x="630" y="20" as="targetPoint" />
          </mxGeometry>
        </mxCell>
        <mxCell id="F7AytVYL2NM1qPVSzKxk-22" value="Select price &amp;gt; 150.00" style="text;html=1;strokeColor=none;fillColor=none;align=center;verticalAlign=middle;whiteSpace=wrap;rounded=0;" parent="1" vertex="1">
          <mxGeometry x="620" y="120" width="130" height="30" as="geometry" />
        </mxCell>
        <mxCell id="TL5K6kv_FM8Xv_psL5GF-1" value="Orders" style="ellipse;whiteSpace=wrap;html=1;" parent="1" vertex="1">
          <mxGeometry x="130" y="860" width="110" height="40" as="geometry" />
        </mxCell>
        <mxCell id="TL5K6kv_FM8Xv_psL5GF-2" value="Odetails" style="ellipse;whiteSpace=wrap;html=1;" parent="1" vertex="1">
          <mxGeometry x="352.5" y="850" width="110" height="40" as="geometry" />
        </mxCell>
        <mxCell id="TL5K6kv_FM8Xv_psL5GF-3" value="Ono=Ono" style="rounded=1;whiteSpace=wrap;html=1;" parent="1" vertex="1">
          <mxGeometry x="210" y="740" width="210" height="30" as="geometry" />
        </mxCell>
        <mxCell id="TL5K6kv_FM8Xv_psL5GF-4" value="Customers" style="ellipse;whiteSpace=wrap;html=1;" parent="1" vertex="1">
          <mxGeometry x="512.5" y="800" width="110" height="40" as="geometry" />
        </mxCell>
        <mxCell id="TL5K6kv_FM8Xv_psL5GF-5" value="Cno=Cno" style="rounded=1;whiteSpace=wrap;html=1;" parent="1" vertex="1">
          <mxGeometry x="330" y="650" width="210" height="30" as="geometry" />
        </mxCell>
        <mxCell id="TL5K6kv_FM8Xv_psL5GF-6" value="Parts" style="ellipse;whiteSpace=wrap;html=1;" parent="1" vertex="1">
          <mxGeometry x="672.5" y="720" width="110" height="40" as="geometry" />
        </mxCell>
        <mxCell id="TL5K6kv_FM8Xv_psL5GF-7" value="Pno=Pno" style="rounded=1;whiteSpace=wrap;html=1;" parent="1" vertex="1">
          <mxGeometry x="462.5" y="560" width="210" height="30" as="geometry" />
        </mxCell>
        <mxCell id="TL5K6kv_FM8Xv_psL5GF-8" value="Project Pname, Cname" style="text;html=1;strokeColor=none;fillColor=none;align=center;verticalAlign=middle;whiteSpace=wrap;rounded=0;" parent="1" vertex="1">
          <mxGeometry x="480" y="500" width="175" height="30" as="geometry" />
        </mxCell>
        <mxCell id="TL5K6kv_FM8Xv_psL5GF-9" value="" style="endArrow=none;html=1;rounded=0;entryX=0.424;entryY=1.044;entryDx=0;entryDy=0;entryPerimeter=0;exitX=0.5;exitY=0;exitDx=0;exitDy=0;" parent="1" source="TL5K6kv_FM8Xv_psL5GF-1" target="TL5K6kv_FM8Xv_psL5GF-3" edge="1">
          <mxGeometry width="50" height="50" relative="1" as="geometry">
            <mxPoint x="220" y="810" as="sourcePoint" />
            <mxPoint x="270" y="760" as="targetPoint" />
          </mxGeometry>
        </mxCell>
        <mxCell id="TL5K6kv_FM8Xv_psL5GF-10" value="" style="endArrow=none;html=1;rounded=0;exitX=0.455;exitY=0;exitDx=0;exitDy=0;exitPerimeter=0;entryX=0.563;entryY=1.044;entryDx=0;entryDy=0;entryPerimeter=0;" parent="1" source="TL5K6kv_FM8Xv_psL5GF-2" target="TL5K6kv_FM8Xv_psL5GF-3" edge="1">
          <mxGeometry width="50" height="50" relative="1" as="geometry">
            <mxPoint x="400" y="800" as="sourcePoint" />
            <mxPoint x="450" y="750" as="targetPoint" />
          </mxGeometry>
        </mxCell>
        <mxCell id="TL5K6kv_FM8Xv_psL5GF-11" value="" style="endArrow=none;html=1;rounded=0;entryX=0.376;entryY=1.111;entryDx=0;entryDy=0;entryPerimeter=0;" parent="1" target="TL5K6kv_FM8Xv_psL5GF-5" edge="1">
          <mxGeometry width="50" height="50" relative="1" as="geometry">
            <mxPoint x="320" y="740" as="sourcePoint" />
            <mxPoint x="370" y="690" as="targetPoint" />
          </mxGeometry>
        </mxCell>
        <mxCell id="TL5K6kv_FM8Xv_psL5GF-12" value="" style="endArrow=none;html=1;rounded=0;entryX=0.579;entryY=1.067;entryDx=0;entryDy=0;entryPerimeter=0;exitX=0.455;exitY=0;exitDx=0;exitDy=0;exitPerimeter=0;" parent="1" source="TL5K6kv_FM8Xv_psL5GF-4" target="TL5K6kv_FM8Xv_psL5GF-5" edge="1">
          <mxGeometry width="50" height="50" relative="1" as="geometry">
            <mxPoint x="530" y="730" as="sourcePoint" />
            <mxPoint x="580" y="680" as="targetPoint" />
          </mxGeometry>
        </mxCell>
        <mxCell id="TL5K6kv_FM8Xv_psL5GF-13" value="" style="endArrow=none;html=1;rounded=0;entryX=0.437;entryY=1.067;entryDx=0;entryDy=0;entryPerimeter=0;" parent="1" target="TL5K6kv_FM8Xv_psL5GF-7" edge="1">
          <mxGeometry width="50" height="50" relative="1" as="geometry">
            <mxPoint x="430" y="650" as="sourcePoint" />
            <mxPoint x="480" y="600" as="targetPoint" />
          </mxGeometry>
        </mxCell>
        <mxCell id="TL5K6kv_FM8Xv_psL5GF-14" value="" style="endArrow=none;html=1;rounded=0;entryX=0.523;entryY=1.089;entryDx=0;entryDy=0;entryPerimeter=0;exitX=0.5;exitY=0;exitDx=0;exitDy=0;" parent="1" source="TL5K6kv_FM8Xv_psL5GF-6" target="TL5K6kv_FM8Xv_psL5GF-7" edge="1">
          <mxGeometry width="50" height="50" relative="1" as="geometry">
            <mxPoint x="650" y="650" as="sourcePoint" />
            <mxPoint x="700" y="600" as="targetPoint" />
          </mxGeometry>
        </mxCell>
        <mxCell id="TL5K6kv_FM8Xv_psL5GF-15" value="" style="endArrow=none;html=1;rounded=0;entryX=0.455;entryY=1.133;entryDx=0;entryDy=0;entryPerimeter=0;" parent="1" target="TL5K6kv_FM8Xv_psL5GF-8" edge="1">
          <mxGeometry width="50" height="50" relative="1" as="geometry">
            <mxPoint x="560" y="560" as="sourcePoint" />
            <mxPoint x="610" y="510" as="targetPoint" />
          </mxGeometry>
        </mxCell>
        <mxCell id="TL5K6kv_FM8Xv_psL5GF-16" value="Select price &amp;gt; 150.00" style="text;html=1;strokeColor=none;fillColor=none;align=center;verticalAlign=middle;whiteSpace=wrap;rounded=0;" parent="1" vertex="1">
          <mxGeometry x="672.5" y="680" width="130" height="30" as="geometry" />
        </mxCell>
        <mxCell id="TL5K6kv_FM8Xv_psL5GF-17" value="Project Ono, Cno" style="text;html=1;strokeColor=none;fillColor=none;align=center;verticalAlign=middle;whiteSpace=wrap;rounded=0;" parent="1" vertex="1">
          <mxGeometry x="120" y="800" width="165" height="30" as="geometry" />
        </mxCell>
        <mxCell id="TL5K6kv_FM8Xv_psL5GF-18" value="Project Pno, Ono" style="text;html=1;strokeColor=none;fillColor=none;align=center;verticalAlign=middle;whiteSpace=wrap;rounded=0;" parent="1" vertex="1">
          <mxGeometry x="325" y="800" width="165" height="30" as="geometry" />
        </mxCell>
        <mxCell id="TL5K6kv_FM8Xv_psL5GF-19" value="Project Pno, Cno" style="text;html=1;strokeColor=none;fillColor=none;align=center;verticalAlign=middle;whiteSpace=wrap;rounded=0;" parent="1" vertex="1">
          <mxGeometry x="230" y="700" width="165" height="30" as="geometry" />
        </mxCell>
        <mxCell id="TL5K6kv_FM8Xv_psL5GF-20" value="Project Cname, Cno" style="text;html=1;strokeColor=none;fillColor=none;align=center;verticalAlign=middle;whiteSpace=wrap;rounded=0;" parent="1" vertex="1">
          <mxGeometry x="455" y="710" width="165" height="30" as="geometry" />
        </mxCell>
        <mxCell id="TL5K6kv_FM8Xv_psL5GF-21" value="Project Cname, Cno" style="text;html=1;strokeColor=none;fillColor=none;align=center;verticalAlign=middle;whiteSpace=wrap;rounded=0;" parent="1" vertex="1">
          <mxGeometry x="390" y="600" width="165" height="30" as="geometry" />
        </mxCell>
        <mxCell id="TL5K6kv_FM8Xv_psL5GF-22" value="Project Pname, Pno" style="text;html=1;strokeColor=none;fillColor=none;align=center;verticalAlign=middle;whiteSpace=wrap;rounded=0;" parent="1" vertex="1">
          <mxGeometry x="590" y="620" width="165" height="30" as="geometry" />
        </mxCell>
        <mxCell id="TL5K6kv_FM8Xv_psL5GF-23" value="" style="shape=collate;whiteSpace=wrap;html=1;rotation=90;" parent="1" vertex="1">
          <mxGeometry x="250" y="735" width="15" height="40" as="geometry" />
        </mxCell>
        <mxCell id="TL5K6kv_FM8Xv_psL5GF-26" value="" style="shape=collate;whiteSpace=wrap;html=1;rotation=90;" parent="1" vertex="1">
          <mxGeometry x="560" y="950" width="15" height="40" as="geometry" />
        </mxCell>
        <mxCell id="TL5K6kv_FM8Xv_psL5GF-27" value="" style="shape=collate;whiteSpace=wrap;html=1;rotation=90;" parent="1" vertex="1">
          <mxGeometry x="375" y="645" width="15" height="40" as="geometry" />
        </mxCell>
        <mxCell id="TL5K6kv_FM8Xv_psL5GF-28" value="" style="shape=collate;whiteSpace=wrap;html=1;rotation=90;" parent="1" vertex="1">
          <mxGeometry x="265" y="245" width="20" height="40" as="geometry" />
        </mxCell>
        <mxCell id="XJdU5opsxBijQss-DmjI-1" value="" style="shape=collate;whiteSpace=wrap;html=1;rotation=90;" parent="1" vertex="1">
          <mxGeometry x="510" y="555" width="10" height="40" as="geometry" />
        </mxCell>
        <mxCell id="XJdU5opsxBijQss-DmjI-7" value="" style="shape=collate;whiteSpace=wrap;html=1;rotation=90;" parent="1" vertex="1">
          <mxGeometry x="170" y="430" width="20" height="40" as="geometry" />
        </mxCell>
        <mxCell id="XJdU5opsxBijQss-DmjI-8" value="" style="shape=collate;whiteSpace=wrap;html=1;rotation=90;" parent="1" vertex="1">
          <mxGeometry x="180" y="440" width="20" height="40" as="geometry" />
        </mxCell>
        <mxCell id="XJdU5opsxBijQss-DmjI-9" value="" style="shape=collate;whiteSpace=wrap;html=1;rotation=90;" parent="1" vertex="1">
          <mxGeometry x="190" y="450" width="20" height="40" as="geometry" />
        </mxCell>
        <mxCell id="XJdU5opsxBijQss-DmjI-10" value="" style="shape=collate;whiteSpace=wrap;html=1;rotation=90;" parent="1" vertex="1">
          <mxGeometry x="527.5" y="65" width="20" height="40" as="geometry" />
        </mxCell>
        <mxCell id="XJdU5opsxBijQss-DmjI-11" value="" style="shape=collate;whiteSpace=wrap;html=1;rotation=90;" parent="1" vertex="1">
          <mxGeometry x="394" y="155" width="20" height="40" as="geometry" />
        </mxCell>
      </root>
    </mxGraphModel>
  </diagram>
  <diagram id="1H-NOzYbtSRga57kOmWr" name="Page-3">
    <mxGraphModel dx="1108" dy="435" grid="1" gridSize="10" guides="1" tooltips="1" connect="1" arrows="1" fold="1" page="1" pageScale="1" pageWidth="827" pageHeight="1169" math="0" shadow="0">
      <root>
        <mxCell id="0" />
        <mxCell id="1" parent="0" />
        <mxCell id="PSPzZijSxV6PrxZHNJ1h-1" value="&lt;b&gt;Project Pname, Cname&lt;/b&gt;" style="text;html=1;strokeColor=none;fillColor=none;align=center;verticalAlign=middle;whiteSpace=wrap;rounded=0;" vertex="1" parent="1">
          <mxGeometry x="130" y="20" width="160" height="30" as="geometry" />
        </mxCell>
        <mxCell id="PSPzZijSxV6PrxZHNJ1h-2" value="Select Pno=Pno AND Select Cno=Cno AND Select Ono=Ono AND Select Shipped &amp;lt; 2" style="rounded=1;whiteSpace=wrap;html=1;" vertex="1" parent="1">
          <mxGeometry x="20" y="80" width="380" height="60" as="geometry" />
        </mxCell>
        <mxCell id="PSPzZijSxV6PrxZHNJ1h-3" value="Parts" style="ellipse;whiteSpace=wrap;html=1;" vertex="1" parent="1">
          <mxGeometry x="275" y="245" width="80" height="40" as="geometry" />
        </mxCell>
        <mxCell id="PSPzZijSxV6PrxZHNJ1h-4" value="Customers" style="ellipse;whiteSpace=wrap;html=1;" vertex="1" parent="1">
          <mxGeometry x="235" y="320" width="80" height="40" as="geometry" />
        </mxCell>
        <mxCell id="PSPzZijSxV6PrxZHNJ1h-5" value="Orders" style="ellipse;whiteSpace=wrap;html=1;" vertex="1" parent="1">
          <mxGeometry x="165" y="390" width="90" height="40" as="geometry" />
        </mxCell>
        <mxCell id="PSPzZijSxV6PrxZHNJ1h-6" value="Odetails" style="ellipse;whiteSpace=wrap;html=1;" vertex="1" parent="1">
          <mxGeometry x="55" y="390" width="80" height="40" as="geometry" />
        </mxCell>
        <mxCell id="PSPzZijSxV6PrxZHNJ1h-7" value="X" style="text;html=1;strokeColor=none;fillColor=none;align=center;verticalAlign=middle;whiteSpace=wrap;rounded=0;" vertex="1" parent="1">
          <mxGeometry x="155" y="250" width="60" height="30" as="geometry" />
        </mxCell>
        <mxCell id="PSPzZijSxV6PrxZHNJ1h-8" value="X" style="text;html=1;strokeColor=none;fillColor=none;align=center;verticalAlign=middle;whiteSpace=wrap;rounded=0;" vertex="1" parent="1">
          <mxGeometry x="190" y="170" width="60" height="30" as="geometry" />
        </mxCell>
        <mxCell id="PSPzZijSxV6PrxZHNJ1h-9" value="X" style="text;html=1;strokeColor=none;fillColor=none;align=center;verticalAlign=middle;whiteSpace=wrap;rounded=0;" vertex="1" parent="1">
          <mxGeometry x="115" y="330" width="60" height="30" as="geometry" />
        </mxCell>
        <mxCell id="PSPzZijSxV6PrxZHNJ1h-10" value="" style="endArrow=none;html=1;rounded=0;exitX=0.578;exitY=0.02;exitDx=0;exitDy=0;exitPerimeter=0;entryX=0.5;entryY=1;entryDx=0;entryDy=0;" edge="1" parent="1" source="PSPzZijSxV6PrxZHNJ1h-6" target="PSPzZijSxV6PrxZHNJ1h-9">
          <mxGeometry width="50" height="50" relative="1" as="geometry">
            <mxPoint x="85" y="390" as="sourcePoint" />
            <mxPoint x="135" y="350" as="targetPoint" />
          </mxGeometry>
        </mxCell>
        <mxCell id="PSPzZijSxV6PrxZHNJ1h-11" value="" style="endArrow=none;html=1;rounded=0;exitX=0.5;exitY=0;exitDx=0;exitDy=0;entryX=0.5;entryY=1;entryDx=0;entryDy=0;" edge="1" parent="1" source="PSPzZijSxV6PrxZHNJ1h-5" target="PSPzZijSxV6PrxZHNJ1h-9">
          <mxGeometry width="50" height="50" relative="1" as="geometry">
            <mxPoint x="205" y="390" as="sourcePoint" />
            <mxPoint x="155" y="350" as="targetPoint" />
          </mxGeometry>
        </mxCell>
        <mxCell id="PSPzZijSxV6PrxZHNJ1h-12" value="" style="endArrow=none;html=1;rounded=0;exitX=0.275;exitY=-0.025;exitDx=0;exitDy=0;entryX=0.5;entryY=1;entryDx=0;entryDy=0;exitPerimeter=0;" edge="1" parent="1" source="PSPzZijSxV6PrxZHNJ1h-4" target="PSPzZijSxV6PrxZHNJ1h-7">
          <mxGeometry width="50" height="50" relative="1" as="geometry">
            <mxPoint x="295" y="300" as="sourcePoint" />
            <mxPoint x="265" y="260" as="targetPoint" />
          </mxGeometry>
        </mxCell>
        <mxCell id="PSPzZijSxV6PrxZHNJ1h-13" value="" style="endArrow=none;html=1;rounded=0;entryX=0.383;entryY=0.967;entryDx=0;entryDy=0;entryPerimeter=0;exitX=0.5;exitY=0;exitDx=0;exitDy=0;" edge="1" parent="1" source="PSPzZijSxV6PrxZHNJ1h-9" target="PSPzZijSxV6PrxZHNJ1h-7">
          <mxGeometry width="50" height="50" relative="1" as="geometry">
            <mxPoint x="145" y="340" as="sourcePoint" />
            <mxPoint x="195" y="280" as="targetPoint" />
          </mxGeometry>
        </mxCell>
        <mxCell id="PSPzZijSxV6PrxZHNJ1h-14" value="" style="endArrow=none;html=1;rounded=0;entryX=0.5;entryY=1;entryDx=0;entryDy=0;" edge="1" parent="1" target="PSPzZijSxV6PrxZHNJ1h-8">
          <mxGeometry width="50" height="50" relative="1" as="geometry">
            <mxPoint x="190" y="255" as="sourcePoint" />
            <mxPoint x="240" y="205" as="targetPoint" />
          </mxGeometry>
        </mxCell>
        <mxCell id="PSPzZijSxV6PrxZHNJ1h-15" value="" style="endArrow=none;html=1;rounded=0;entryX=0.5;entryY=1;entryDx=0;entryDy=0;exitX=0.5;exitY=0;exitDx=0;exitDy=0;" edge="1" parent="1" source="PSPzZijSxV6PrxZHNJ1h-3" target="PSPzZijSxV6PrxZHNJ1h-8">
          <mxGeometry width="50" height="50" relative="1" as="geometry">
            <mxPoint x="320" y="210" as="sourcePoint" />
            <mxPoint x="370" y="160" as="targetPoint" />
          </mxGeometry>
        </mxCell>
        <mxCell id="PSPzZijSxV6PrxZHNJ1h-16" value="" style="endArrow=none;html=1;rounded=0;entryX=0.5;entryY=0;entryDx=0;entryDy=0;exitX=0.518;exitY=1.047;exitDx=0;exitDy=0;exitPerimeter=0;" edge="1" parent="1" source="PSPzZijSxV6PrxZHNJ1h-2" target="PSPzZijSxV6PrxZHNJ1h-8">
          <mxGeometry width="50" height="50" relative="1" as="geometry">
            <mxPoint x="155" y="190" as="sourcePoint" />
            <mxPoint x="185" y="160" as="targetPoint" />
          </mxGeometry>
        </mxCell>
        <mxCell id="PSPzZijSxV6PrxZHNJ1h-17" value="" style="endArrow=none;html=1;rounded=0;exitX=0.5;exitY=0;exitDx=0;exitDy=0;entryX=0.5;entryY=1;entryDx=0;entryDy=0;" edge="1" parent="1" source="PSPzZijSxV6PrxZHNJ1h-2" target="PSPzZijSxV6PrxZHNJ1h-1">
          <mxGeometry width="50" height="50" relative="1" as="geometry">
            <mxPoint x="405" y="150" as="sourcePoint" />
            <mxPoint x="455" y="100" as="targetPoint" />
          </mxGeometry>
        </mxCell>
        <mxCell id="za4s_LpnNdDSo4g9-zqV-1" value="Orders" style="ellipse;whiteSpace=wrap;html=1;" vertex="1" parent="1">
          <mxGeometry x="220" y="870" width="80" height="40" as="geometry" />
        </mxCell>
        <mxCell id="za4s_LpnNdDSo4g9-zqV-2" value="Odetails" style="ellipse;whiteSpace=wrap;html=1;" vertex="1" parent="1">
          <mxGeometry x="362" y="870" width="85" height="40" as="geometry" />
        </mxCell>
        <mxCell id="za4s_LpnNdDSo4g9-zqV-3" value="" style="endArrow=none;html=1;rounded=0;entryX=0.5;entryY=1;entryDx=0;entryDy=0;exitX=0.5;exitY=0;exitDx=0;exitDy=0;" edge="1" parent="1" source="za4s_LpnNdDSo4g9-zqV-2" target="za4s_LpnNdDSo4g9-zqV-5">
          <mxGeometry width="50" height="50" relative="1" as="geometry">
            <mxPoint x="335" y="880" as="sourcePoint" />
            <mxPoint x="295" y="840" as="targetPoint" />
          </mxGeometry>
        </mxCell>
        <mxCell id="za4s_LpnNdDSo4g9-zqV-4" value="" style="endArrow=none;html=1;rounded=0;entryX=0.5;entryY=1;entryDx=0;entryDy=0;exitX=0.5;exitY=0;exitDx=0;exitDy=0;" edge="1" parent="1" source="za4s_LpnNdDSo4g9-zqV-1" target="za4s_LpnNdDSo4g9-zqV-5">
          <mxGeometry width="50" height="50" relative="1" as="geometry">
            <mxPoint x="215" y="880" as="sourcePoint" />
            <mxPoint x="256" y="840" as="targetPoint" />
          </mxGeometry>
        </mxCell>
        <mxCell id="za4s_LpnNdDSo4g9-zqV-5" value="X" style="text;html=1;strokeColor=none;fillColor=none;align=center;verticalAlign=middle;whiteSpace=wrap;rounded=0;" vertex="1" parent="1">
          <mxGeometry x="300" y="800" width="60" height="30" as="geometry" />
        </mxCell>
        <mxCell id="za4s_LpnNdDSo4g9-zqV-6" value="Select Ono=Ono" style="rounded=1;whiteSpace=wrap;html=1;" vertex="1" parent="1">
          <mxGeometry x="215" y="745" width="250" height="30" as="geometry" />
        </mxCell>
        <mxCell id="za4s_LpnNdDSo4g9-zqV-7" value="" style="endArrow=none;html=1;rounded=0;entryX=0.468;entryY=1.05;entryDx=0;entryDy=0;entryPerimeter=0;exitX=0.5;exitY=0;exitDx=0;exitDy=0;" edge="1" parent="1" source="za4s_LpnNdDSo4g9-zqV-5" target="za4s_LpnNdDSo4g9-zqV-6">
          <mxGeometry width="50" height="50" relative="1" as="geometry">
            <mxPoint x="275" y="820" as="sourcePoint" />
            <mxPoint x="325" y="770" as="targetPoint" />
          </mxGeometry>
        </mxCell>
        <mxCell id="za4s_LpnNdDSo4g9-zqV-8" value="Parts" style="ellipse;whiteSpace=wrap;html=1;" vertex="1" parent="1">
          <mxGeometry x="505" y="745" width="85" height="40" as="geometry" />
        </mxCell>
        <mxCell id="za4s_LpnNdDSo4g9-zqV-9" value="X" style="text;html=1;strokeColor=none;fillColor=none;align=center;verticalAlign=middle;whiteSpace=wrap;rounded=0;" vertex="1" parent="1">
          <mxGeometry x="420" y="670" width="60" height="30" as="geometry" />
        </mxCell>
        <mxCell id="za4s_LpnNdDSo4g9-zqV-10" value="" style="endArrow=none;html=1;rounded=0;entryX=0.5;entryY=1;entryDx=0;entryDy=0;exitX=0.482;exitY=0.04;exitDx=0;exitDy=0;exitPerimeter=0;" edge="1" parent="1" source="za4s_LpnNdDSo4g9-zqV-6" target="za4s_LpnNdDSo4g9-zqV-9">
          <mxGeometry width="50" height="50" relative="1" as="geometry">
            <mxPoint x="295" y="760" as="sourcePoint" />
            <mxPoint x="345" y="710" as="targetPoint" />
          </mxGeometry>
        </mxCell>
        <mxCell id="za4s_LpnNdDSo4g9-zqV-11" value="" style="endArrow=none;html=1;rounded=0;exitX=0.5;exitY=0;exitDx=0;exitDy=0;entryX=0.5;entryY=1;entryDx=0;entryDy=0;" edge="1" parent="1" source="za4s_LpnNdDSo4g9-zqV-8" target="za4s_LpnNdDSo4g9-zqV-9">
          <mxGeometry width="50" height="50" relative="1" as="geometry">
            <mxPoint x="535" y="760" as="sourcePoint" />
            <mxPoint x="450" y="710" as="targetPoint" />
          </mxGeometry>
        </mxCell>
        <mxCell id="za4s_LpnNdDSo4g9-zqV-12" value="Select Pno=Pno" style="rounded=1;whiteSpace=wrap;html=1;" vertex="1" parent="1">
          <mxGeometry x="325" y="620" width="250" height="30" as="geometry" />
        </mxCell>
        <mxCell id="za4s_LpnNdDSo4g9-zqV-13" value="" style="endArrow=none;html=1;rounded=0;entryX=0.5;entryY=1;entryDx=0;entryDy=0;exitX=0.5;exitY=0;exitDx=0;exitDy=0;" edge="1" parent="1" source="za4s_LpnNdDSo4g9-zqV-9" target="za4s_LpnNdDSo4g9-zqV-12">
          <mxGeometry width="50" height="50" relative="1" as="geometry">
            <mxPoint x="435" y="700" as="sourcePoint" />
            <mxPoint x="485" y="650" as="targetPoint" />
          </mxGeometry>
        </mxCell>
        <mxCell id="za4s_LpnNdDSo4g9-zqV-14" value="Customers" style="ellipse;whiteSpace=wrap;html=1;" vertex="1" parent="1">
          <mxGeometry x="647.5" y="630" width="85" height="40" as="geometry" />
        </mxCell>
        <mxCell id="za4s_LpnNdDSo4g9-zqV-16" value="X" style="text;html=1;strokeColor=none;fillColor=none;align=center;verticalAlign=middle;whiteSpace=wrap;rounded=0;" vertex="1" parent="1">
          <mxGeometry x="545" y="560" width="60" height="30" as="geometry" />
        </mxCell>
        <mxCell id="za4s_LpnNdDSo4g9-zqV-17" value="" style="endArrow=none;html=1;rounded=0;exitX=0.5;exitY=0;exitDx=0;exitDy=0;" edge="1" parent="1" source="za4s_LpnNdDSo4g9-zqV-12">
          <mxGeometry width="50" height="50" relative="1" as="geometry">
            <mxPoint x="445" y="640" as="sourcePoint" />
            <mxPoint x="575" y="590" as="targetPoint" />
          </mxGeometry>
        </mxCell>
        <mxCell id="za4s_LpnNdDSo4g9-zqV-18" value="" style="endArrow=none;html=1;rounded=0;entryX=0.5;entryY=1;entryDx=0;entryDy=0;exitX=0.5;exitY=0;exitDx=0;exitDy=0;" edge="1" parent="1" source="za4s_LpnNdDSo4g9-zqV-14" target="za4s_LpnNdDSo4g9-zqV-16">
          <mxGeometry width="50" height="50" relative="1" as="geometry">
            <mxPoint x="662.5" y="640" as="sourcePoint" />
            <mxPoint x="712.5" y="590" as="targetPoint" />
          </mxGeometry>
        </mxCell>
        <mxCell id="za4s_LpnNdDSo4g9-zqV-19" value="Select Cno=Cno" style="rounded=1;whiteSpace=wrap;html=1;" vertex="1" parent="1">
          <mxGeometry x="447" y="510" width="250" height="30" as="geometry" />
        </mxCell>
        <mxCell id="za4s_LpnNdDSo4g9-zqV-20" value="Project Cname, Pname" style="text;html=1;strokeColor=none;fillColor=none;align=center;verticalAlign=middle;whiteSpace=wrap;rounded=0;fontStyle=1" vertex="1" parent="1">
          <mxGeometry x="475" y="460" width="200" height="30" as="geometry" />
        </mxCell>
        <mxCell id="za4s_LpnNdDSo4g9-zqV-21" value="" style="endArrow=none;html=1;rounded=0;" edge="1" parent="1">
          <mxGeometry width="50" height="50" relative="1" as="geometry">
            <mxPoint x="575" y="560" as="sourcePoint" />
            <mxPoint x="574.71" y="540" as="targetPoint" />
          </mxGeometry>
        </mxCell>
        <mxCell id="za4s_LpnNdDSo4g9-zqV-22" value="" style="endArrow=none;html=1;rounded=0;entryX=0.47;entryY=1.1;entryDx=0;entryDy=0;entryPerimeter=0;exitX=0.5;exitY=0;exitDx=0;exitDy=0;" edge="1" parent="1" source="za4s_LpnNdDSo4g9-zqV-19" target="za4s_LpnNdDSo4g9-zqV-20">
          <mxGeometry width="50" height="50" relative="1" as="geometry">
            <mxPoint x="574.71" y="510" as="sourcePoint" />
            <mxPoint x="575" y="470" as="targetPoint" />
          </mxGeometry>
        </mxCell>
        <mxCell id="za4s_LpnNdDSo4g9-zqV-23" value="Select shipped &amp;lt; 2" style="text;html=1;strokeColor=none;fillColor=none;align=center;verticalAlign=middle;whiteSpace=wrap;rounded=0;" vertex="1" parent="1">
          <mxGeometry x="195" y="830" width="130" height="30" as="geometry" />
        </mxCell>
      </root>
    </mxGraphModel>
  </diagram>
  <diagram id="vqVAN_h0iygX2dOlGf3R" name="Page-4">
    <mxGraphModel dx="1108" dy="435" grid="1" gridSize="10" guides="1" tooltips="1" connect="1" arrows="1" fold="1" page="1" pageScale="1" pageWidth="827" pageHeight="1169" math="0" shadow="0">
      <root>
        <mxCell id="0" />
        <mxCell id="1" parent="0" />
        <mxCell id="8TG6nfNFLlae6ziuOxBI-1" value="Orders" style="ellipse;whiteSpace=wrap;html=1;" vertex="1" parent="1">
          <mxGeometry x="170" y="320" width="110" height="40" as="geometry" />
        </mxCell>
        <mxCell id="8TG6nfNFLlae6ziuOxBI-2" value="Odetails" style="ellipse;whiteSpace=wrap;html=1;" vertex="1" parent="1">
          <mxGeometry x="390" y="320" width="110" height="40" as="geometry" />
        </mxCell>
        <mxCell id="8TG6nfNFLlae6ziuOxBI-3" value="Select Ono=Ono" style="rounded=1;whiteSpace=wrap;html=1;" vertex="1" parent="1">
          <mxGeometry x="230" y="250" width="210" height="30" as="geometry" />
        </mxCell>
        <mxCell id="8TG6nfNFLlae6ziuOxBI-4" value="Parts" style="ellipse;whiteSpace=wrap;html=1;" vertex="1" parent="1">
          <mxGeometry x="510" y="240" width="110" height="40" as="geometry" />
        </mxCell>
        <mxCell id="8TG6nfNFLlae6ziuOxBI-5" value="Select Pno=Pno" style="rounded=1;whiteSpace=wrap;html=1;" vertex="1" parent="1">
          <mxGeometry x="350" y="160" width="210" height="30" as="geometry" />
        </mxCell>
        <mxCell id="8TG6nfNFLlae6ziuOxBI-6" value="Customers" style="ellipse;whiteSpace=wrap;html=1;" vertex="1" parent="1">
          <mxGeometry x="630" y="160" width="110" height="40" as="geometry" />
        </mxCell>
        <mxCell id="8TG6nfNFLlae6ziuOxBI-7" value="Select Cno=Cno" style="rounded=1;whiteSpace=wrap;html=1;" vertex="1" parent="1">
          <mxGeometry x="482.5" y="70" width="210" height="30" as="geometry" />
        </mxCell>
        <mxCell id="8TG6nfNFLlae6ziuOxBI-8" value="Project Pname, Cname" style="text;html=1;strokeColor=none;fillColor=none;align=center;verticalAlign=middle;whiteSpace=wrap;rounded=0;" vertex="1" parent="1">
          <mxGeometry x="500" y="10" width="175" height="30" as="geometry" />
        </mxCell>
        <mxCell id="8TG6nfNFLlae6ziuOxBI-9" value="" style="endArrow=none;html=1;rounded=0;entryX=0.424;entryY=1.044;entryDx=0;entryDy=0;entryPerimeter=0;" edge="1" parent="1" target="8TG6nfNFLlae6ziuOxBI-3">
          <mxGeometry width="50" height="50" relative="1" as="geometry">
            <mxPoint x="240" y="320" as="sourcePoint" />
            <mxPoint x="290" y="270" as="targetPoint" />
          </mxGeometry>
        </mxCell>
        <mxCell id="8TG6nfNFLlae6ziuOxBI-10" value="" style="endArrow=none;html=1;rounded=0;exitX=0.455;exitY=0;exitDx=0;exitDy=0;exitPerimeter=0;entryX=0.563;entryY=1.044;entryDx=0;entryDy=0;entryPerimeter=0;" edge="1" parent="1" source="8TG6nfNFLlae6ziuOxBI-2" target="8TG6nfNFLlae6ziuOxBI-3">
          <mxGeometry width="50" height="50" relative="1" as="geometry">
            <mxPoint x="420" y="310" as="sourcePoint" />
            <mxPoint x="470" y="260" as="targetPoint" />
          </mxGeometry>
        </mxCell>
        <mxCell id="8TG6nfNFLlae6ziuOxBI-11" value="" style="endArrow=none;html=1;rounded=0;entryX=0.376;entryY=1.111;entryDx=0;entryDy=0;entryPerimeter=0;" edge="1" parent="1" target="8TG6nfNFLlae6ziuOxBI-5">
          <mxGeometry width="50" height="50" relative="1" as="geometry">
            <mxPoint x="340" y="250" as="sourcePoint" />
            <mxPoint x="390" y="200" as="targetPoint" />
          </mxGeometry>
        </mxCell>
        <mxCell id="8TG6nfNFLlae6ziuOxBI-12" value="" style="endArrow=none;html=1;rounded=0;entryX=0.579;entryY=1.067;entryDx=0;entryDy=0;entryPerimeter=0;" edge="1" parent="1" target="8TG6nfNFLlae6ziuOxBI-5">
          <mxGeometry width="50" height="50" relative="1" as="geometry">
            <mxPoint x="550" y="240" as="sourcePoint" />
            <mxPoint x="600" y="190" as="targetPoint" />
          </mxGeometry>
        </mxCell>
        <mxCell id="8TG6nfNFLlae6ziuOxBI-13" value="" style="endArrow=none;html=1;rounded=0;entryX=0.437;entryY=1.067;entryDx=0;entryDy=0;entryPerimeter=0;" edge="1" parent="1" target="8TG6nfNFLlae6ziuOxBI-7">
          <mxGeometry width="50" height="50" relative="1" as="geometry">
            <mxPoint x="450" y="160" as="sourcePoint" />
            <mxPoint x="500" y="110" as="targetPoint" />
          </mxGeometry>
        </mxCell>
        <mxCell id="8TG6nfNFLlae6ziuOxBI-14" value="" style="endArrow=none;html=1;rounded=0;entryX=0.523;entryY=1.089;entryDx=0;entryDy=0;entryPerimeter=0;" edge="1" parent="1" target="8TG6nfNFLlae6ziuOxBI-7">
          <mxGeometry width="50" height="50" relative="1" as="geometry">
            <mxPoint x="670" y="160" as="sourcePoint" />
            <mxPoint x="720" y="110" as="targetPoint" />
          </mxGeometry>
        </mxCell>
        <mxCell id="8TG6nfNFLlae6ziuOxBI-15" value="" style="endArrow=none;html=1;rounded=0;entryX=0.455;entryY=1.133;entryDx=0;entryDy=0;entryPerimeter=0;" edge="1" parent="1" target="8TG6nfNFLlae6ziuOxBI-8">
          <mxGeometry width="50" height="50" relative="1" as="geometry">
            <mxPoint x="580" y="70" as="sourcePoint" />
            <mxPoint x="630" y="20" as="targetPoint" />
          </mxGeometry>
        </mxCell>
        <mxCell id="8TG6nfNFLlae6ziuOxBI-16" value="Select Shipped &amp;lt; 2" style="text;html=1;strokeColor=none;fillColor=none;align=center;verticalAlign=middle;whiteSpace=wrap;rounded=0;" vertex="1" parent="1">
          <mxGeometry x="160" y="280" width="130" height="30" as="geometry" />
        </mxCell>
        <mxCell id="NuQz4l4jn7iAryjoqx0B-1" value="" style="shape=collate;whiteSpace=wrap;html=1;rotation=90;" vertex="1" parent="1">
          <mxGeometry x="20" y="70" width="20" height="40" as="geometry" />
        </mxCell>
        <mxCell id="NuQz4l4jn7iAryjoqx0B-2" value="" style="shape=collate;whiteSpace=wrap;html=1;rotation=90;" vertex="1" parent="1">
          <mxGeometry x="30" y="80" width="20" height="40" as="geometry" />
        </mxCell>
        <mxCell id="NuQz4l4jn7iAryjoqx0B-3" value="" style="shape=collate;whiteSpace=wrap;html=1;rotation=90;" vertex="1" parent="1">
          <mxGeometry x="40" y="90" width="20" height="40" as="geometry" />
        </mxCell>
        <mxCell id="NuQz4l4jn7iAryjoqx0B-4" value="" style="shape=collate;whiteSpace=wrap;html=1;rotation=90;" vertex="1" parent="1">
          <mxGeometry x="250" y="245" width="20" height="40" as="geometry" />
        </mxCell>
        <mxCell id="NuQz4l4jn7iAryjoqx0B-5" value="" style="shape=collate;whiteSpace=wrap;html=1;rotation=90;" vertex="1" parent="1">
          <mxGeometry x="380" y="155" width="20" height="40" as="geometry" />
        </mxCell>
        <mxCell id="NuQz4l4jn7iAryjoqx0B-6" value="" style="shape=collate;whiteSpace=wrap;html=1;rotation=90;" vertex="1" parent="1">
          <mxGeometry x="510" y="65" width="20" height="40" as="geometry" />
        </mxCell>
        <mxCell id="_XFpYneKdG672TZ6bBe5-1" value="Orders" style="ellipse;whiteSpace=wrap;html=1;" vertex="1" parent="1">
          <mxGeometry x="130" y="860" width="110" height="40" as="geometry" />
        </mxCell>
        <mxCell id="_XFpYneKdG672TZ6bBe5-2" value="Odetails" style="ellipse;whiteSpace=wrap;html=1;" vertex="1" parent="1">
          <mxGeometry x="352.5" y="850" width="110" height="40" as="geometry" />
        </mxCell>
        <mxCell id="_XFpYneKdG672TZ6bBe5-3" value="Ono=Ono" style="rounded=1;whiteSpace=wrap;html=1;" vertex="1" parent="1">
          <mxGeometry x="210" y="740" width="210" height="30" as="geometry" />
        </mxCell>
        <mxCell id="_XFpYneKdG672TZ6bBe5-4" value="Parts" style="ellipse;whiteSpace=wrap;html=1;" vertex="1" parent="1">
          <mxGeometry x="512.5" y="800" width="110" height="40" as="geometry" />
        </mxCell>
        <mxCell id="_XFpYneKdG672TZ6bBe5-5" value="Pno=Pno" style="rounded=1;whiteSpace=wrap;html=1;" vertex="1" parent="1">
          <mxGeometry x="330" y="650" width="210" height="30" as="geometry" />
        </mxCell>
        <mxCell id="_XFpYneKdG672TZ6bBe5-6" value="Customers" style="ellipse;whiteSpace=wrap;html=1;" vertex="1" parent="1">
          <mxGeometry x="672.5" y="720" width="110" height="40" as="geometry" />
        </mxCell>
        <mxCell id="_XFpYneKdG672TZ6bBe5-7" value="Pno=Pno" style="rounded=1;whiteSpace=wrap;html=1;" vertex="1" parent="1">
          <mxGeometry x="462.5" y="560" width="210" height="30" as="geometry" />
        </mxCell>
        <mxCell id="_XFpYneKdG672TZ6bBe5-8" value="Project Pname, Cname" style="text;html=1;strokeColor=none;fillColor=none;align=center;verticalAlign=middle;whiteSpace=wrap;rounded=0;" vertex="1" parent="1">
          <mxGeometry x="480" y="500" width="175" height="30" as="geometry" />
        </mxCell>
        <mxCell id="_XFpYneKdG672TZ6bBe5-9" value="" style="endArrow=none;html=1;rounded=0;entryX=0.424;entryY=1.044;entryDx=0;entryDy=0;entryPerimeter=0;exitX=0.5;exitY=0;exitDx=0;exitDy=0;" edge="1" parent="1" source="_XFpYneKdG672TZ6bBe5-1" target="_XFpYneKdG672TZ6bBe5-3">
          <mxGeometry width="50" height="50" relative="1" as="geometry">
            <mxPoint x="220" y="810" as="sourcePoint" />
            <mxPoint x="270" y="760" as="targetPoint" />
          </mxGeometry>
        </mxCell>
        <mxCell id="_XFpYneKdG672TZ6bBe5-10" value="" style="endArrow=none;html=1;rounded=0;exitX=0.455;exitY=0;exitDx=0;exitDy=0;exitPerimeter=0;entryX=0.563;entryY=1.044;entryDx=0;entryDy=0;entryPerimeter=0;" edge="1" parent="1" source="_XFpYneKdG672TZ6bBe5-2" target="_XFpYneKdG672TZ6bBe5-3">
          <mxGeometry width="50" height="50" relative="1" as="geometry">
            <mxPoint x="400" y="800" as="sourcePoint" />
            <mxPoint x="450" y="750" as="targetPoint" />
          </mxGeometry>
        </mxCell>
        <mxCell id="_XFpYneKdG672TZ6bBe5-11" value="" style="endArrow=none;html=1;rounded=0;entryX=0.376;entryY=1.111;entryDx=0;entryDy=0;entryPerimeter=0;" edge="1" parent="1" target="_XFpYneKdG672TZ6bBe5-5">
          <mxGeometry width="50" height="50" relative="1" as="geometry">
            <mxPoint x="320" y="740" as="sourcePoint" />
            <mxPoint x="370" y="690" as="targetPoint" />
          </mxGeometry>
        </mxCell>
        <mxCell id="_XFpYneKdG672TZ6bBe5-12" value="" style="endArrow=none;html=1;rounded=0;entryX=0.579;entryY=1.067;entryDx=0;entryDy=0;entryPerimeter=0;exitX=0.455;exitY=0;exitDx=0;exitDy=0;exitPerimeter=0;" edge="1" parent="1" source="_XFpYneKdG672TZ6bBe5-4" target="_XFpYneKdG672TZ6bBe5-5">
          <mxGeometry width="50" height="50" relative="1" as="geometry">
            <mxPoint x="530" y="730" as="sourcePoint" />
            <mxPoint x="580" y="680" as="targetPoint" />
          </mxGeometry>
        </mxCell>
        <mxCell id="_XFpYneKdG672TZ6bBe5-13" value="" style="endArrow=none;html=1;rounded=0;entryX=0.437;entryY=1.067;entryDx=0;entryDy=0;entryPerimeter=0;" edge="1" parent="1" target="_XFpYneKdG672TZ6bBe5-7">
          <mxGeometry width="50" height="50" relative="1" as="geometry">
            <mxPoint x="430" y="650" as="sourcePoint" />
            <mxPoint x="480" y="600" as="targetPoint" />
          </mxGeometry>
        </mxCell>
        <mxCell id="_XFpYneKdG672TZ6bBe5-14" value="" style="endArrow=none;html=1;rounded=0;entryX=0.523;entryY=1.089;entryDx=0;entryDy=0;entryPerimeter=0;exitX=0.5;exitY=0;exitDx=0;exitDy=0;" edge="1" parent="1" source="_XFpYneKdG672TZ6bBe5-6" target="_XFpYneKdG672TZ6bBe5-7">
          <mxGeometry width="50" height="50" relative="1" as="geometry">
            <mxPoint x="650" y="650" as="sourcePoint" />
            <mxPoint x="700" y="600" as="targetPoint" />
          </mxGeometry>
        </mxCell>
        <mxCell id="_XFpYneKdG672TZ6bBe5-15" value="" style="endArrow=none;html=1;rounded=0;entryX=0.455;entryY=1.133;entryDx=0;entryDy=0;entryPerimeter=0;" edge="1" parent="1" target="_XFpYneKdG672TZ6bBe5-8">
          <mxGeometry width="50" height="50" relative="1" as="geometry">
            <mxPoint x="560" y="560" as="sourcePoint" />
            <mxPoint x="610" y="510" as="targetPoint" />
          </mxGeometry>
        </mxCell>
        <mxCell id="_XFpYneKdG672TZ6bBe5-17" value="Project Pno, Ono" style="text;html=1;strokeColor=none;fillColor=none;align=center;verticalAlign=middle;whiteSpace=wrap;rounded=0;" vertex="1" parent="1">
          <mxGeometry x="325" y="800" width="165" height="30" as="geometry" />
        </mxCell>
        <mxCell id="_XFpYneKdG672TZ6bBe5-18" value="Project Pno, Cno" style="text;html=1;strokeColor=none;fillColor=none;align=center;verticalAlign=middle;whiteSpace=wrap;rounded=0;" vertex="1" parent="1">
          <mxGeometry x="230" y="700" width="165" height="30" as="geometry" />
        </mxCell>
        <mxCell id="_XFpYneKdG672TZ6bBe5-19" value="Project Pname, Pno" style="text;html=1;strokeColor=none;fillColor=none;align=center;verticalAlign=middle;whiteSpace=wrap;rounded=0;" vertex="1" parent="1">
          <mxGeometry x="455" y="710" width="165" height="30" as="geometry" />
        </mxCell>
        <mxCell id="_XFpYneKdG672TZ6bBe5-20" value="Project Pname, Cno" style="text;html=1;strokeColor=none;fillColor=none;align=center;verticalAlign=middle;whiteSpace=wrap;rounded=0;" vertex="1" parent="1">
          <mxGeometry x="390" y="600" width="165" height="30" as="geometry" />
        </mxCell>
        <mxCell id="_XFpYneKdG672TZ6bBe5-21" value="Project Cname, Cno" style="text;html=1;strokeColor=none;fillColor=none;align=center;verticalAlign=middle;whiteSpace=wrap;rounded=0;" vertex="1" parent="1">
          <mxGeometry x="590" y="620" width="165" height="30" as="geometry" />
        </mxCell>
        <mxCell id="_XFpYneKdG672TZ6bBe5-22" value="" style="shape=collate;whiteSpace=wrap;html=1;rotation=90;" vertex="1" parent="1">
          <mxGeometry x="250" y="735" width="15" height="40" as="geometry" />
        </mxCell>
        <mxCell id="_XFpYneKdG672TZ6bBe5-23" value="" style="shape=collate;whiteSpace=wrap;html=1;rotation=90;" vertex="1" parent="1">
          <mxGeometry x="375" y="645" width="15" height="40" as="geometry" />
        </mxCell>
        <mxCell id="_XFpYneKdG672TZ6bBe5-24" value="" style="shape=collate;whiteSpace=wrap;html=1;rotation=90;" vertex="1" parent="1">
          <mxGeometry x="510" y="555" width="10" height="40" as="geometry" />
        </mxCell>
        <mxCell id="_XFpYneKdG672TZ6bBe5-25" value="Project Pno, Ono&lt;br&gt;&lt;br&gt;Select Shipped &amp;lt; 2" style="text;html=1;strokeColor=none;fillColor=none;align=center;verticalAlign=middle;whiteSpace=wrap;rounded=0;" vertex="1" parent="1">
          <mxGeometry x="125" y="805" width="165" height="30" as="geometry" />
        </mxCell>
      </root>
    </mxGraphModel>
  </diagram>
</mxfile>
